<?xml version="1.0" standalone="no"?>
<!DOCTYPE svg PUBLIC "-//W3C//DTD SVG 20010904//EN"
 "http://www.w3.org/TR/2001/REC-SVG-20010904/DTD/svg10.dtd">
<svg version="1.0" xmlns="http://www.w3.org/2000/svg"
 width="2163.000000pt" height="2163.000000pt" viewBox="0 0 2163.000000 2163.000000"
 preserveAspectRatio="xMidYMid meet">
<metadata>
Created by potrace 1.14, written by Peter Selinger 2001-2017
</metadata>
<g transform="translate(0.000000,2163.000000) scale(0.100000,-0.100000)"
fill="#000000" stroke="none">
<path d="M10513 21622 c-29 -3 -36 -10 -35 -32 0 -3 3 -48 6 -100 7 -128 19
-357 20 -400 1 -33 -1 -35 -34 -36 -19 -1 -84 -4 -145 -8 -60 -3 -153 -9 -206
-12 -53 -3 -99 -2 -102 3 -3 4 -8 71 -12 148 -10 222 -13 244 -35 289 -11 23
-32 51 -47 62 -56 41 -87 47 -205 41 -62 -4 -123 -6 -135 -7 -21 0 -22 -3 -18
-57 2 -32 7 -105 10 -163 10 -192 15 -294 20 -375 3 -44 7 -125 10 -180 3 -55
7 -131 10 -170 3 -38 8 -119 11 -180 8 -159 10 -187 19 -220 12 -49 56 -104
104 -133 43 -25 55 -27 161 -27 175 -1 161 -11 155 109 -3 55 -7 133 -10 171
-3 39 -7 117 -10 175 -4 58 -7 120 -9 138 -1 23 2 32 13 33 9 1 36 2 61 4 25
2 99 6 165 9 66 4 150 9 186 11 l66 5 2 -53 c1 -28 3 -77 6 -107 2 -30 7 -104
10 -165 7 -128 25 -176 86 -229 46 -39 125 -59 209 -52 30 2 75 5 98 5 l44 1
-7 123 c-4 67 -8 151 -10 187 -2 36 -6 108 -9 160 -3 52 -8 138 -11 190 -3 52
-8 136 -11 185 -5 96 -9 167 -19 360 -9 170 -15 194 -60 239 -52 52 -81 61
-200 61 -60 0 -125 -1 -142 -3z"/>
<path d="M11725 21508 c-34 -34 -81 -90 -107 -123 -54 -72 -178 -259 -178
-271 0 -4 -6 -15 -14 -23 -20 -23 -167 -309 -220 -428 -67 -151 -117 -301
-121 -362 -7 -130 58 -191 220 -206 33 -3 73 -8 90 -11 l30 -5 28 88 c16 48
42 127 60 175 l31 87 35 -5 c20 -2 59 -6 86 -9 28 -4 66 -8 85 -10 19 -3 60
-7 90 -10 30 -3 66 -8 80 -10 14 -2 50 -7 80 -10 30 -4 58 -10 62 -13 6 -6 16
-84 23 -172 11 -132 83 -198 236 -215 81 -9 141 -16 168 -20 l23 -4 -6 112
c-6 122 -14 215 -21 262 -2 17 -7 53 -11 80 -3 28 -8 59 -10 70 -2 11 -7 38
-10 60 -2 22 -12 74 -20 115 -9 41 -18 84 -19 95 -15 89 -83 340 -130 475 -44
125 -73 184 -111 226 -72 78 -136 101 -329 120 l-60 6 -60 -64z m200 -408 c30
-102 46 -164 69 -278 l24 -114 -72 7 c-39 4 -79 9 -90 11 -10 2 -51 6 -90 10
-39 3 -75 10 -80 14 -5 5 20 66 57 142 79 159 149 280 159 270 3 -4 14 -32 23
-62z"/>
<path d="M13027 21383 c-3 -4 -89 -289 -192 -633 -133 -441 -188 -639 -187
-672 0 -60 33 -129 78 -166 41 -34 138 -71 234 -89 25 -4 26 -1 64 129 22 73
51 171 66 218 15 47 55 183 91 302 35 120 67 218 72 218 4 0 6 -3 5 -7 -2 -6
11 -91 17 -113 1 -3 4 -21 8 -40 4 -19 12 -53 17 -75 11 -50 29 -134 75 -345
38 -177 60 -246 106 -326 56 -99 135 -158 263 -199 45 -14 94 -30 111 -35 16
-5 32 -6 36 -2 4 4 14 34 23 67 15 55 63 212 103 340 8 28 16 55 17 60 4 15
79 267 196 650 24 77 45 161 47 186 8 79 -42 161 -119 196 -48 22 -206 68
-212 62 -3 -3 -120 -387 -131 -429 -2 -8 -27 -94 -56 -190 -48 -164 -66 -210
-66 -177 0 13 -11 76 -34 187 -5 25 -11 61 -14 80 -3 19 -14 80 -25 135 -10
55 -21 118 -24 140 -13 87 -30 143 -66 220 -69 145 -171 220 -380 280 -52 15
-100 30 -106 32 -7 2 -14 1 -17 -4z"/>
<path d="M7900 21209 c-80 -28 -239 -84 -355 -124 -320 -112 -327 -114 -353
-131 -79 -52 -115 -113 -118 -202 -2 -36 1 -86 7 -111 6 -25 12 -53 14 -61 51
-237 212 -683 283 -781 45 -63 135 -141 194 -168 164 -76 296 -69 578 30 213
75 297 125 335 199 25 48 20 110 -16 215 l-32 93 -51 -30 c-88 -51 -187 -95
-326 -142 -200 -69 -269 -68 -323 6 -23 32 -70 138 -64 144 2 2 79 30 173 62
93 33 185 66 204 74 78 33 130 100 130 166 0 27 -50 185 -62 197 -3 3 -18 0
-34 -6 -16 -6 -78 -28 -139 -49 -60 -21 -168 -59 -239 -84 -72 -25 -133 -46
-137 -46 -7 0 -27 60 -62 188 -15 52 -15 53 6 62 12 4 110 38 217 74 107 37
214 75 236 85 101 47 151 127 141 224 -5 52 -44 167 -56 167 -3 0 -71 -23
-151 -51z"/>
<path d="M14626 20588 c-55 -106 -125 -242 -156 -303 -32 -60 -111 -216 -176
-345 l-119 -234 -2 -81 c-2 -71 1 -87 27 -140 56 -115 145 -188 355 -292 166
-83 221 -100 350 -108 286 -19 563 153 717 445 105 199 129 393 72 580 -47
158 -167 314 -318 414 -76 50 -276 149 -376 186 -83 31 -229 70 -261 70 -10 0
-49 -66 -113 -192z m454 -288 c104 -55 150 -96 190 -172 30 -55 34 -73 36
-148 5 -146 -62 -306 -173 -418 -85 -86 -134 -107 -248 -107 -82 0 -96 3 -165
36 -146 69 -146 69 14 382 68 133 150 293 181 355 34 67 63 112 72 112 8 0 50
-18 93 -40z"/>
<path d="M6279 20544 c-127 -28 -157 -40 -379 -166 -105 -59 -279 -183 -334
-238 l-30 -29 43 -83 c24 -46 47 -87 51 -93 4 -5 33 -59 65 -120 32 -60 66
-123 75 -140 9 -16 43 -79 75 -140 32 -60 61 -114 65 -120 4 -5 36 -64 70
-130 170 -322 200 -363 284 -386 69 -19 126 -7 240 51 l106 54 -62 116 c-34
63 -70 131 -81 150 -11 19 -44 81 -74 138 l-54 102 28 11 c145 57 161 52 373
-107 80 -60 164 -118 188 -130 83 -40 184 -26 300 42 56 33 144 113 137 125
-3 4 -30 22 -59 39 -30 17 -136 91 -237 164 -197 145 -249 175 -310 183 l-39
6 29 32 c41 47 72 149 72 234 0 130 -67 277 -159 349 -105 83 -248 115 -383
86z m78 -386 c41 -28 83 -109 83 -160 0 -49 -30 -109 -67 -134 -39 -25 -156
-84 -169 -84 -6 0 -46 64 -88 143 l-76 142 25 20 c15 11 58 37 98 57 87 45
143 50 194 16z"/>
<path d="M15935 19474 c-187 -252 -348 -475 -358 -497 -65 -139 -38 -281 79
-415 48 -55 163 -148 290 -234 75 -52 166 -94 223 -104 14 -3 29 -8 35 -11 5
-4 46 -7 90 -8 139 -4 246 38 339 131 73 75 97 134 98 245 1 64 -15 124 -48
187 l-22 43 29 -6 c46 -10 133 -8 181 5 98 27 168 87 216 188 24 50 27 69 27
152 0 79 -5 106 -26 158 -33 80 -87 158 -152 220 -67 64 -262 208 -352 260
-81 47 -251 128 -286 137 -21 5 -55 -37 -363 -451z m595 -60 c38 -25 93 -67
122 -95 51 -48 53 -51 53 -104 0 -49 -3 -58 -36 -91 -28 -28 -47 -37 -80 -41
-53 -6 -103 19 -219 107 l-79 60 61 83 c62 82 98 127 105 127 2 0 35 -20 73
-46z m-317 -466 c136 -102 177 -147 177 -197 0 -39 -42 -108 -82 -133 -66 -43
-123 -26 -258 79 -99 78 -99 88 -5 217 39 53 74 96 78 96 5 0 45 -28 90 -62z"/>
<path d="M5058 19815 c-20 -7 -82 -45 -137 -85 l-101 -72 45 -61 c24 -34 66
-93 93 -132 27 -38 74 -106 106 -150 31 -44 62 -88 69 -98 7 -10 18 -26 25
-35 16 -22 233 -328 292 -413 24 -35 48 -68 53 -74 4 -5 28 -38 52 -72 71
-100 150 -137 248 -119 30 6 228 136 235 155 2 7 -109 170 -216 316 -16 22
-83 117 -149 210 -437 619 -420 597 -464 617 -47 23 -108 28 -151 13z"/>
<path d="M12247 19374 c-1 -1 -29 -5 -62 -9 -136 -15 -312 -63 -372 -103 -16
-10 -34 -12 -60 -7 -90 17 -250 42 -323 50 -30 3 -66 8 -80 10 -139 24 -523
35 -720 22 -329 -23 -587 -96 -815 -231 -26 -15 -63 -25 -105 -29 -36 -3 -112
-15 -170 -27 -58 -12 -116 -23 -130 -26 -14 -3 -34 -8 -45 -11 -11 -4 -24 -8
-30 -9 -5 -1 -62 -16 -126 -33 -72 -20 -141 -32 -180 -32 -35 0 -127 0 -204 0
-246 1 -422 -28 -611 -98 -243 -91 -434 -290 -494 -513 -11 -41 -16 -48 -44
-53 -141 -30 -292 -110 -391 -210 -110 -109 -196 -287 -211 -437 -3 -29 -11
-58 -17 -64 -7 -6 -52 -25 -102 -44 -236 -87 -674 -286 -860 -392 -301 -170
-615 -374 -805 -525 -288 -227 -558 -476 -745 -687 -38 -44 -77 -87 -87 -97
-60 -63 -269 -334 -369 -479 -59 -84 -179 -273 -214 -336 -84 -149 -115 -207
-115 -214 0 -4 -6 -13 -14 -19 -8 -7 -17 -24 -21 -39 -4 -15 -12 -34 -19 -42
-17 -20 -136 -284 -198 -440 -45 -113 -165 -460 -173 -499 -2 -9 -17 -63 -33
-121 -28 -96 -93 -364 -106 -434 -3 -16 -10 -52 -15 -80 -6 -28 -13 -63 -15
-79 -3 -15 -9 -53 -15 -85 -5 -31 -13 -75 -16 -97 -3 -22 -10 -67 -15 -100 -5
-33 -12 -87 -15 -120 -4 -33 -8 -73 -10 -90 -2 -16 -7 -64 -10 -105 -3 -41 -8
-88 -10 -105 -27 -206 -22 -953 9 -1180 2 -22 8 -74 12 -115 3 -41 8 -82 9
-90 2 -8 6 -44 10 -80 4 -36 9 -74 11 -85 2 -11 7 -39 9 -62 3 -23 19 -113 35
-200 28 -150 32 -174 45 -233 3 -14 7 -34 9 -45 2 -11 14 -58 26 -105 12 -47
24 -94 26 -105 2 -11 20 -76 39 -145 20 -69 37 -129 39 -135 12 -47 38 -134
46 -150 5 -11 21 -58 36 -105 120 -380 410 -991 631 -1334 l45 -69 -50 -106
c-71 -150 -146 -362 -167 -469 -1 -9 -8 -35 -13 -57 -6 -22 -13 -53 -15 -70
-3 -16 -8 -46 -11 -65 -13 -78 -16 -99 -23 -185 -8 -100 -8 -299 -1 -387 l5
-57 -46 -32 c-245 -172 -514 -483 -696 -804 -67 -120 -172 -343 -191 -410 -2
-5 -14 -41 -28 -80 -28 -80 -73 -233 -82 -279 -8 -42 -9 -48 -17 -71 -3 -11
-8 -38 -12 -60 -3 -22 -10 -65 -15 -95 -32 -191 -40 -409 -26 -670 4 -69 9
-138 11 -155 2 -16 9 -64 15 -105 17 -123 20 -140 51 -265 49 -198 130 -419
216 -593 15 -29 31 -55 35 -58 4 -3 8 -11 8 -19 0 -15 121 -217 189 -315 49
-72 177 -240 213 -281 13 -14 40 -46 61 -70 327 -374 791 -727 1266 -964 753
-376 1713 -709 2711 -940 156 -36 495 -108 560 -119 64 -11 95 -17 108 -21 7
-2 34 -7 60 -10 26 -4 63 -10 82 -15 35 -9 65 -14 155 -26 28 -3 52 -8 55 -9
3 -2 26 -6 50 -10 60 -8 239 -35 270 -40 117 -18 229 -32 306 -40 25 -3 57 -7
72 -9 30 -5 101 -13 177 -21 28 -3 66 -7 85 -9 19 -3 64 -7 100 -11 36 -3 81
-8 100 -10 19 -2 73 -7 120 -10 47 -3 103 -8 125 -10 70 -7 177 -15 265 -20
47 -3 121 -8 165 -11 507 -31 1345 -36 1910 -9 151 7 310 16 365 20 30 2 91 7
135 10 90 6 188 14 255 20 25 2 81 7 125 10 44 4 91 8 105 10 14 2 54 6 90 10
36 3 103 10 150 16 47 5 105 12 130 15 55 6 72 8 225 29 66 8 136 18 155 21
19 3 49 7 65 9 17 3 48 7 70 10 22 4 51 8 65 10 38 5 112 17 135 21 11 2 76
13 145 25 69 11 143 24 165 29 22 5 56 11 75 14 19 3 46 8 60 11 14 2 75 14
135 26 135 26 384 87 570 140 847 243 1679 635 2433 1145 184 125 407 288 492
361 102 87 681 683 786 808 36 44 76 91 88 105 45 54 202 273 253 356 189 304
334 610 426 899 33 103 74 245 82 283 31 147 65 329 70 371 4 30 8 62 10 72
26 135 26 775 0 879 -2 8 -7 38 -10 65 -13 95 -14 106 -24 158 -27 140 -39
189 -78 322 -108 373 -263 705 -471 1010 -69 102 -170 236 -222 295 -12 14
-44 50 -71 81 -252 289 -660 609 -1023 804 l-88 47 6 82 c4 44 10 119 14 166
15 180 7 772 -12 975 -2 17 -7 68 -11 115 -4 47 -9 92 -10 101 -2 9 -6 40 -10
70 -4 30 -8 58 -8 63 -1 6 15 13 37 16 49 9 464 5 575 -5 l84 -7 -6 138 c-6
132 -10 167 -23 224 -3 14 -8 36 -11 50 -8 49 -66 206 -100 275 -63 127 -145
237 -258 350 -159 159 -317 260 -550 351 l-110 43 -43 108 c-140 358 -343 760
-552 1093 -80 129 -262 394 -281 410 -3 3 -10 12 -15 21 -10 18 -22 33 -169
218 -54 69 -102 128 -106 131 -3 3 -25 28 -49 55 -163 192 -453 482 -665 665
-60 52 -112 97 -115 100 -3 3 -48 40 -100 81 -342 272 -726 522 -1106 718
l-101 52 15 52 c18 68 49 202 57 247 3 19 10 60 15 90 14 84 21 136 25 198 3
31 7 82 10 113 3 31 7 138 10 238 l4 182 34 52 c64 98 86 195 82 346 -10 310
-202 667 -490 908 -33 28 -112 84 -175 125 -63 41 -154 100 -202 131 l-88 57
-1 53 c0 28 -2 66 -4 82 -2 17 -6 57 -10 90 -62 625 -274 951 -718 1105 -193
67 -393 100 -620 104 -76 1 -139 1 -140 0z m937 -3496 c71 -70 201 -246 191
-256 -2 -2 -39 6 -82 18 -82 23 -96 27 -153 40 -19 5 -72 18 -118 29 -46 12
-92 21 -102 21 -34 0 -32 19 5 70 37 51 151 160 167 160 5 0 46 -37 92 -82z"/>
<path d="M4136 19056 c-72 -25 -81 -31 -181 -121 l-77 -69 6 -75 c8 -100 13
-127 42 -246 53 -222 164 -516 285 -760 124 -249 193 -332 283 -342 60 -7 111
19 205 105 l73 68 -29 49 c-17 28 -46 75 -65 105 -19 30 -48 79 -63 109 l-27
55 49 45 c26 25 78 73 114 106 36 33 98 90 139 128 40 37 77 67 82 67 5 0 57
-31 114 -70 58 -38 115 -71 127 -72 83 -5 142 16 212 79 75 66 145 135 145
141 -1 13 -162 132 -319 236 -252 167 -554 327 -796 421 -159 63 -228 71 -319
41z m290 -446 c113 -55 218 -112 252 -136 2 -1 -21 -24 -50 -50 -29 -27 -82
-77 -119 -111 -36 -35 -70 -63 -75 -63 -15 0 -95 180 -149 338 -26 76 -29 92
-16 92 8 0 79 -31 157 -70z"/>
<path d="M17768 18629 c-237 -35 -701 -211 -1028 -390 -72 -40 -173 -114 -200
-149 -42 -53 -50 -121 -22 -176 21 -39 152 -184 167 -184 4 0 38 20 74 43 108
71 219 137 231 137 10 0 94 -84 297 -299 l71 -74 -69 -104 c-116 -176 -109
-230 54 -400 40 -41 74 -79 75 -84 9 -25 36 0 109 104 214 299 394 627 530
967 107 267 95 370 -62 538 -76 81 -78 82 -123 81 -26 -1 -73 -5 -104 -10z
m-28 -374 c0 -22 -131 -299 -186 -392 l-19 -32 -110 116 c-60 64 -111 121
-113 127 -3 13 144 85 278 136 47 17 94 36 105 40 23 10 45 12 45 5z"/>
<path d="M3196 18125 c-49 -17 -83 -49 -163 -155 -60 -78 -63 -85 -46 -98 10
-7 29 -21 43 -32 28 -21 94 -70 448 -333 132 -98 262 -202 289 -230 111 -117
107 -235 -11 -360 -71 -74 -142 -95 -231 -69 -72 20 -130 58 -415 272 -140
104 -278 202 -307 215 -92 44 -183 36 -249 -23 -17 -15 -59 -64 -92 -109 l-62
-82 133 -98 c72 -55 202 -151 287 -213 85 -63 157 -117 160 -120 17 -21 206
-148 261 -175 336 -170 706 -25 894 350 25 50 48 99 50 110 2 11 9 38 14 61
27 111 16 250 -30 359 -36 88 -74 144 -141 214 -65 67 -582 454 -658 493 -66
33 -122 41 -174 23z"/>
<path d="M18470 17520 c-140 -99 -260 -183 -265 -187 -6 -4 -31 -22 -55 -39
-273 -187 -356 -257 -417 -351 -57 -89 -67 -126 -66 -238 0 -110 37 -200 147
-364 112 -165 177 -238 241 -267 89 -42 157 -31 265 44 98 67 95 64 74 79 -83
61 -237 247 -289 351 -31 61 -36 99 -18 142 26 63 45 80 358 295 55 38 105 73
110 77 6 5 60 43 121 86 145 101 156 110 188 159 34 51 40 110 19 173 -17 49
-132 220 -148 219 -5 0 -125 -81 -265 -179z"/>
<path d="M2209 16818 c-54 -103 -106 -201 -129 -243 -15 -27 -58 -108 -95
-180 -38 -71 -97 -184 -132 -250 -144 -270 -158 -303 -158 -369 1 -99 36 -147
155 -210 39 -21 73 -36 74 -34 11 15 55 95 116 213 40 77 77 145 82 152 7 9
32 0 96 -34 48 -25 134 -70 192 -101 58 -30 137 -72 175 -92 411 -220 432
-230 489 -230 104 0 146 37 239 211 l47 86 -148 78 c-259 138 -296 157 -367
195 -38 20 -128 68 -200 106 -153 80 -273 144 -299 160 -19 11 -17 16 24 95
74 141 77 149 79 210 2 58 -17 119 -52 161 -14 18 -152 98 -168 98 -5 0 -14
-10 -20 -22z"/>
<path d="M19255 16426 c-132 -67 -342 -174 -466 -238 -241 -123 -309 -167
-381 -246 -147 -164 -147 -348 0 -631 91 -177 102 -194 150 -243 90 -93 172
-100 322 -27 l90 44 -34 39 c-19 21 -48 57 -63 80 -15 22 -30 43 -33 46 -9 9
-49 83 -90 167 -70 141 -64 215 23 279 23 18 179 102 347 187 168 85 328 167
356 182 108 56 159 142 142 238 -9 48 -103 248 -117 247 -3 -1 -114 -56 -246
-124z"/>
<path d="M1633 15299 c-71 -13 -115 -40 -183 -109 -195 -199 -263 -551 -156
-801 15 -36 74 -120 105 -149 79 -77 193 -122 307 -123 70 -1 88 3 137 28 66
33 137 98 193 175 43 61 43 61 110 174 26 43 70 103 98 133 42 45 57 55 86 56
44 1 87 -20 113 -55 80 -108 -92 -484 -275 -606 -21 -13 -38 -27 -38 -31 0 -3
43 -20 95 -38 163 -54 265 -37 368 62 91 87 163 235 214 440 3 11 7 72 8 135
3 98 0 126 -19 185 -39 122 -110 209 -219 269 -117 64 -227 82 -328 53 -114
-34 -200 -118 -331 -325 -138 -217 -183 -256 -257 -218 -81 42 -86 146 -17
336 43 116 140 250 222 306 l54 38 -27 11 c-46 19 -156 53 -188 58 -16 2 -49
0 -72 -4z"/>
<path d="M19790 14007 c-3 -3 -24 -7 -47 -11 -92 -12 -234 -69 -323 -129 -109
-74 -233 -238 -275 -362 -42 -128 -56 -300 -33 -425 45 -251 194 -427 368
-435 33 -2 75 1 93 5 17 5 48 12 67 15 74 12 75 14 32 51 -52 44 -111 138
-150 239 -116 300 -11 539 273 620 320 91 563 -131 549 -500 -2 -44 -5 -89 -7
-100 -15 -64 -30 -108 -53 -149 -14 -25 -24 -46 -21 -46 26 0 209 44 241 58
83 37 164 146 183 247 14 78 7 236 -16 320 -24 89 -86 225 -127 283 -105 143
-249 244 -416 293 -69 20 -324 40 -338 26z"/>
<path d="M1026 13961 c-3 -14 -9 -44 -12 -66 -3 -22 -14 -85 -25 -140 -10 -55
-21 -118 -24 -140 -4 -22 -8 -47 -11 -56 -2 -9 -7 -34 -10 -55 -2 -22 -6 -46
-9 -54 -2 -8 -7 -32 -11 -54 -3 -21 -8 -48 -10 -60 -21 -100 -41 -243 -38
-265 11 -66 18 -88 39 -121 38 -60 99 -97 220 -134 55 -17 196 -52 235 -59 14
-3 72 -14 130 -25 58 -11 121 -23 140 -26 19 -3 46 -8 60 -11 107 -24 262 -26
350 -5 241 56 376 252 426 615 3 28 10 59 14 70 4 11 7 62 8 113 1 183 -49
244 -225 271 -39 6 -78 14 -87 17 -14 5 -16 -7 -16 -92 0 -127 -5 -179 -40
-354 -39 -196 -88 -254 -208 -245 -94 7 -111 13 -106 38 2 12 7 37 10 56 3 18
8 43 10 55 2 11 11 59 19 106 8 47 17 96 20 110 12 52 6 139 -11 171 -17 33
-25 43 -56 67 -20 16 -200 53 -210 44 -3 -4 -9 -25 -12 -47 -4 -23 -9 -52 -11
-65 -3 -14 -12 -63 -20 -110 -9 -47 -25 -132 -35 -190 -11 -58 -22 -116 -24
-130 -4 -31 -30 -31 -146 -1 -95 25 -112 33 -106 48 3 8 10 42 16 76 5 34 12
73 15 87 26 130 55 313 55 352 0 50 -29 125 -58 151 -27 24 -94 56 -132 62
-19 3 -52 10 -72 14 -35 8 -37 7 -42 -18z"/>
<path d="M20647 12484 c-2 -2 -231 -13 -387 -19 -433 -17 -532 -23 -620 -41
-108 -23 -191 -64 -253 -126 -98 -98 -131 -203 -130 -413 0 -329 33 -439 148
-491 48 -22 66 -25 159 -23 68 2 106 6 106 13 0 6 -7 34 -15 61 -28 90 -43
218 -42 340 2 137 14 169 76 203 58 32 64 33 381 47 69 3 184 8 255 10 267 10
312 17 371 57 59 41 78 89 80 203 1 55 -1 118 -5 140 l-6 40 -58 0 c-32 0 -59
-1 -60 -1z"/>
<path d="M1448 11254 c-332 -50 -553 -257 -623 -583 -14 -65 -14 -275 0 -381
18 -136 64 -314 110 -427 15 -38 20 -42 44 -39 14 3 51 8 81 11 30 4 71 8 90
11 19 2 64 7 100 10 36 3 72 7 80 9 8 2 44 6 80 9 65 7 98 11 175 20 22 3 65
8 95 11 30 3 66 8 80 10 14 2 57 7 95 10 39 3 81 8 95 10 14 2 52 7 85 10 193
19 291 97 335 268 18 70 21 217 6 317 -3 19 -8 58 -11 85 -54 444 -438 711
-917 639z m369 -436 c134 -54 205 -157 219 -319 5 -55 3 -74 -10 -95 -26 -39
-44 -43 -246 -64 -155 -16 -192 -20 -225 -25 -33 -5 -191 -23 -270 -31 -27 -3
-62 -7 -77 -8 -25 -3 -29 1 -38 33 -16 60 -21 175 -10 232 24 123 124 226 267
273 96 31 114 33 233 31 76 -2 108 -7 157 -27z"/>
<path d="M19670 11195 c-173 -40 -314 -146 -400 -300 -25 -44 -72 -165 -65
-165 2 0 1 -10 -4 -23 -12 -31 -24 -139 -23 -213 2 -177 63 -343 168 -450 101
-104 256 -181 395 -199 22 -3 58 -7 82 -10 23 -3 58 -7 77 -10 19 -2 71 -8
115 -14 86 -11 181 -22 230 -26 17 -2 53 -6 80 -11 80 -12 187 -7 227 9 78 33
118 104 133 237 3 30 8 73 11 96 l5 41 -108 12 c-59 7 -126 14 -148 16 -58 6
-136 16 -165 20 -14 2 -54 7 -90 10 -36 4 -72 9 -80 10 -8 1 -46 6 -83 10 -37
3 -76 8 -85 10 -9 1 -46 6 -82 10 -115 13 -155 22 -212 51 -88 44 -126 107
-123 201 5 155 59 241 171 272 37 10 230 8 281 -3 12 -2 53 -8 90 -11 37 -4
76 -9 85 -10 9 -2 48 -7 85 -10 37 -4 77 -9 88 -11 44 -9 163 -18 225 -18 147
1 226 77 244 234 3 25 8 68 11 97 7 58 10 56 -100 68 -105 11 -141 15 -175 20
-19 2 -57 7 -85 10 -27 3 -66 8 -85 10 -43 6 -184 22 -265 31 -33 3 -69 8 -80
11 -61 13 -285 11 -345 -2z"/>
<path d="M1975 9639 c-22 -4 -56 -10 -75 -14 -19 -3 -107 -28 -195 -55 -88
-26 -176 -53 -195 -58 -108 -31 -308 -95 -332 -108 -84 -43 -131 -116 -127
-194 2 -36 40 -183 63 -246 3 -8 58 5 168 38 90 28 199 60 243 73 44 13 163
49 265 80 102 31 192 58 200 60 8 2 33 7 55 12 59 14 150 6 195 -17 71 -36
116 -119 127 -236 10 -106 -40 -182 -153 -236 -47 -22 -228 -82 -309 -102 -22
-5 -101 -29 -115 -34 -8 -3 -19 -6 -25 -8 -51 -13 -248 -76 -275 -88 -111 -46
-164 -124 -158 -228 4 -51 48 -221 61 -235 2 -1 53 12 113 31 60 18 118 36
129 39 11 3 110 33 220 67 110 33 253 77 318 96 137 40 208 70 274 115 225
155 321 397 262 667 -65 300 -232 496 -480 566 -63 18 -194 25 -254 15z"/>
<path d="M19221 9615 c-166 -51 -273 -228 -356 -589 -15 -65 -21 -213 -10
-265 32 -157 110 -268 243 -339 56 -31 84 -37 167 -37 89 1 181 41 258 114
l52 49 2 -37 c2 -57 57 -163 109 -210 63 -59 123 -82 214 -84 137 -3 203 25
305 127 91 91 139 183 199 385 55 184 83 337 87 486 2 83 2 82 -28 88 -16 3
-140 40 -278 82 -137 42 -257 78 -265 80 -8 2 -67 20 -130 40 -63 20 -122 38
-130 40 -8 2 -69 20 -135 40 -135 41 -234 51 -304 30z m237 -450 c63 -20 117
-37 118 -38 3 -3 -47 -172 -65 -222 -35 -92 -71 -125 -138 -125 -92 1 -158 62
-155 146 3 54 56 231 78 255 23 25 27 25 162 -16z m454 -134 c13 -5 63 -21
111 -36 l88 -27 -5 -31 c-7 -42 -9 -51 -30 -122 -39 -129 -82 -180 -151 -179
-122 3 -164 98 -115 259 12 39 26 87 32 108 11 39 26 45 70 28z"/>
<path d="M2590 8164 c-86 -22 -160 -64 -220 -124 -71 -72 -91 -125 -97 -255
-4 -84 -1 -118 22 -215 14 -63 28 -126 31 -139 3 -14 7 -28 9 -31 3 -4 7 -32
11 -61 3 -30 7 -56 7 -59 1 -3 -2 -24 -6 -47 -6 -36 -13 -46 -45 -61 -44 -23
-84 -19 -126 11 -40 28 -48 38 -100 129 -88 154 -127 323 -104 450 5 27 7 52
4 55 -3 3 -43 -14 -88 -37 -157 -80 -202 -150 -202 -310 0 -110 23 -199 84
-321 72 -145 159 -243 281 -316 143 -84 320 -97 454 -31 124 60 193 143 214
254 9 48 7 166 -4 214 -3 14 -8 39 -10 55 -3 17 -8 38 -11 47 -3 9 -7 25 -9
35 -48 192 -57 274 -33 312 7 12 32 31 55 42 81 39 146 -3 221 -142 30 -56 85
-199 77 -199 -2 0 0 -12 5 -26 16 -41 22 -183 11 -239 -5 -27 -8 -51 -6 -53 8
-8 184 90 216 120 105 99 121 251 49 450 -94 258 -265 444 -455 494 -64 18
-165 17 -235 -2z"/>
</g>
</svg>
